<?xml version="1.0" encoding="UTF-8" standalone="no"?>
<!-- Created with Inkscape (http://www.inkscape.org/) -->

<svg
   xmlns:dc="http://purl.org/dc/elements/1.1/"
   xmlns:cc="http://creativecommons.org/ns#"
   xmlns:rdf="http://www.w3.org/1999/02/22-rdf-syntax-ns#"
   xmlns:svg="http://www.w3.org/2000/svg"
   xmlns="http://www.w3.org/2000/svg"
   xmlns:sodipodi="http://sodipodi.sourceforge.net/DTD/sodipodi-0.dtd"
   xmlns:inkscape="http://www.inkscape.org/namespaces/inkscape"
   width="210mm"
   height="297mm"
   viewBox="0 0 744.09448819 1052.3622047"
   id="svg2"
   version="1.1"
   inkscape:version="0.91 r13725"
   sodipodi:docname="footsteps.svg">
  <defs
     id="defs4" />
  <sodipodi:namedview
     id="base"
     pagecolor="#ffffff"
     bordercolor="#666666"
     borderopacity="1.0"
     inkscape:pageopacity="0.0"
     inkscape:pageshadow="2"
     inkscape:zoom="0.7"
     inkscape:cx="595.33183"
     inkscape:cy="563.05138"
     inkscape:document-units="px"
     inkscape:current-layer="layer1"
     showgrid="false"
     inkscape:window-width="1920"
     inkscape:window-height="1017"
     inkscape:window-x="-8"
     inkscape:window-y="-8"
     inkscape:window-maximized="1" />
  <metadata
     id="metadata7">
    <rdf:RDF>
      <cc:Work
         rdf:about="">
        <dc:format>image/svg+xml</dc:format>
        <dc:type
           rdf:resource="http://purl.org/dc/dcmitype/StillImage" />
        <dc:title />
      </cc:Work>
    </rdf:RDF>
  </metadata>
  <g
     inkscape:label="Ebene 1"
     inkscape:groupmode="layer"
     id="layer1">
    <path
       id="path3353"
       style="fill:#808080;fill-opacity:1;stroke:#141414;stroke-opacity:1;stroke-width:1.5;stroke-miterlimit:4;stroke-dasharray:none"
       d="m 44.500582,125.04645 4.73663,-3.13454 -4.07507,-7.35623 -4.07506,-7.35623 -4.3911,1.83425 c -11.45833,4.78635 -14.90677,14.29899 -6.89111,19.00941 3.34082,1.96323 8.91993,0.82557 14.69571,-2.99666 z m 17.88041,-7.53034 c 10.13846,-4.65382 20.33914,-12.52916 25.42124,-19.626224 5.77815,-8.06909 6.33948,-13.31567 1.96836,-18.3974 -3.87398,-4.50377 -11.51684,-4.68188 -20.20666,-0.47088 -6.70999,3.25159 -20.51801,16.19621 -23.56808,22.094394 -1.7933,3.46786 -1.67306,3.91382 3.06406,11.36441 2.71183,4.2652 5.48559,7.75491 6.1639,7.75491 0.67832,0 3.89905,-1.22365 7.15718,-2.71921 z M 39.491482,87.297816 c 2.95244,-3.09483 5.93839,-8.86206 5.93839,-11.46972 0,-0.54696 -3.35438,-2.78233 -7.45417,-4.9675 l -7.45418,-3.97303 -3.17082,6.25732 c -1.74396,3.44152 -3.17083,7.55711 -3.17083,9.14574 0,8.37765 9.21988,11.39272 15.31161,5.00719 z m 23.94628,-26.40213 c 12.8154,-12.666738 17.44717,-27.568948 10.67393,-34.342188 -8.56139,-8.56139 -25.09914,2.01851 -36.21202,23.16636 -2.45839,4.67832 -4.4698,9.56805 -4.4698,10.86605 0,1.579788 2.58279,3.853308 7.8125,6.876998 7.63842,4.41634 7.89424,4.47109 11.48076,2.4572 2.01755,-1.13289 6.83913,-5.19387 10.71463,-9.02442 z"
       inkscape:export-filename="C:\Users\tkuen\Entwicklung\GitHub\JavaOnMobile\FootSteps\src\main\resources\footsteps.png"
       inkscape:export-xdpi="430.92999"
       inkscape:export-ydpi="430.92999" />
  </g>
</svg>
